/* XPM */
static char *_3cd801c704047c39c01f1ddd9c79a9c[] = {
/* columns rows colors chars-per-pixel */
"64 64 256 2 ",
"   c #253E55",
".  c #1F3E53",
"X  c #27475B",
"o  c #33455C",
"O  c #1D4A69",
"+  c #1E5477",
"@  c #224662",
"#  c #244C65",
"$  c #2A4B63",
"%  c #234D6B",
"&  c #2C4D6C",
"*  c #2A4762",
"=  c #354B64",
"-  c #334D6B",
";  c #3A4F68",
":  c #26526D",
">  c #2B526D",
",  c #2C5468",
"<  c #33536D",
"1  c #3A536C",
"2  c #36546A",
"3  c #234E71",
"4  c #2A4E72",
"5  c #245374",
"6  c #2B5474",
"7  c #2C5975",
"8  c #24557B",
"9  c #2B5679",
"0  c #265A7B",
"q  c #2C5B7C",
"w  c #265976",
"e  c #335473",
"r  c #3B5673",
"t  c #345A74",
"y  c #3C5A74",
"u  c #33567A",
"i  c #3A567A",
"p  c #335C7C",
"a  c #3A5B7B",
"s  c #374F71",
"d  c #2D617E",
"f  c #34627C",
"g  c #3B637D",
"h  c #3C657A",
"j  c #1D415B",
"k  c #415C77",
"l  c #40566E",
"z  c #41637C",
"x  c #1E5C83",
"c  c #255B82",
"v  c #2B5D82",
"b  c #285983",
"n  c #345D82",
"m  c #3A5D82",
"M  c #385E88",
"N  c #2B6285",
"B  c #25638B",
"V  c #2B648A",
"C  c #2C6A8D",
"Z  c #276287",
"A  c #336384",
"S  c #3C6384",
"D  c #35648B",
"F  c #3B658B",
"G  c #346A8B",
"H  c #3B6B8B",
"J  c #386A85",
"K  c #3C728C",
"L  c #3B718A",
"P  c #2C6B93",
"I  c #2B6D99",
"U  c #336692",
"Y  c #3B6691",
"T  c #356B93",
"R  c #3C6B94",
"E  c #336D9A",
"W  c #3C6D9A",
"Q  c #2D739C",
"!  c #2D7497",
"~  c #347195",
"^  c #3C7294",
"/  c #33739D",
"(  c #3B739C",
")  c #3D7B9C",
"_  c #37799E",
"`  c #2C75A3",
"'  c #2C7BA4",
"]  c #2B7CAA",
"[  c #3575A2",
"{  c #3B75A2",
"}  c #327BA5",
"|  c #3C7CA3",
" . c #327BAA",
".. c #3C7BAB",
"X. c #3577A9",
"o. c #426C8C",
"O. c #456888",
"+. c #43728C",
"@. c #48768E",
"#. c #426C93",
"$. c #426E99",
"%. c #476A94",
"&. c #447493",
"*. c #4B7A94",
"=. c #43739B",
"-. c #457B9B",
";. c #4C7B9B",
":. c #487796",
">. c #537A97",
",. c #526F93",
"<. c #4175A3",
"1. c #437BA4",
"2. c #4B7DA3",
"3. c #447BAA",
"4. c #497DAD",
"5. c #567DA5",
"6. c #617FA1",
"7. c #2D83AC",
"8. c #2E80A6",
"9. c #3385AC",
"0. c #3D84AB",
"q. c #3B84A7",
"w. c #3385B4",
"e. c #3B85B4",
"r. c #368CB3",
"t. c #3B8BB5",
"y. c #3686B9",
"u. c #348BBB",
"i. c #3B8CBC",
"p. c #3A85B8",
"a. c #3C92BB",
"s. c #3894B9",
"d. c #2E8DBD",
"f. c #47819D",
"g. c #55839C",
"h. c #4482A4",
"j. c #4C83A4",
"k. c #4384AA",
"l. c #4B84AB",
"z. c #448AAD",
"x. c #4B8AAC",
"c. c #4B89A7",
"v. c #5383A4",
"b. c #5584AB",
"n. c #548BAC",
"m. c #5B8CAC",
"M. c #5886A6",
"N. c #5692AC",
"B. c #4484B2",
"V. c #4C83B2",
"C. c #448BB3",
"Z. c #4B8DB2",
"A. c #478DB9",
"S. c #5384B2",
"D. c #5B86B4",
"F. c #548CB3",
"G. c #5A8AB4",
"H. c #538DBA",
"J. c #5C8BBA",
"K. c #5C86B8",
"L. c #4C93B5",
"P. c #4493BB",
"I. c #4C93BB",
"U. c #4C99BC",
"Y. c #4495B9",
"T. c #5393B4",
"R. c #5C93B4",
"E. c #5393BB",
"W. c #5C94BC",
"Q. c #539CBD",
"!. c #5B9CBC",
"~. c #5C9AB5",
"^. c #4F90AE",
"/. c #6487AB",
"(. c #648CB8",
"). c #6394B9",
"_. c #6698B8",
"`. c #6290AA",
"'. c #5CA1BF",
"]. c #68A2BB",
"[. c #71A7BF",
"{. c #3D8FC2",
"}. c #3D9BC4",
"|. c #3A94C3",
" X c #3FA2C8",
".X c #32A2D0",
"XX c #4494C3",
"oX c #449CC5",
"OX c #4C9BC4",
"+X c #4B9ECA",
"@X c #459AC7",
"#X c #5C94C2",
"$X c #549CC3",
"%X c #5B9CC3",
"&X c #549ECB",
"*X c #5D9DCA",
"=X c #5494C2",
"-X c #5896C9",
";X c #6396C3",
":X c #649CC4",
">X c #6C9BC4",
",X c #639CCA",
"<X c #6A9AC9",
"1X c #6E97C4",
"2X c #44A2C5",
"3X c #4CA2C5",
"4X c #44A4CA",
"5X c #4CA3CB",
"6X c #4BAACC",
"7X c #45AACC",
"8X c #54A3C5",
"9X c #5CA4C4",
"0X c #54A4CC",
"qX c #5CA4CC",
"wX c #55AACC",
"eX c #5CABCC",
"rX c #5BA8C4",
"tX c #4AADD1",
"yX c #48AAD3",
"uX c #53ADD2",
"iX c #5BACD1",
"pX c #56A5D1",
"aX c #4BB2D5",
"sX c #55B2D4",
"dX c #5CB2D3",
"fX c #5CBADA",
"gX c #5FB0CE",
"hX c #63A2C4",
"jX c #6BA2C4",
"kX c #62A4CB",
"lX c #6AA3CB",
"zX c #63ACCC",
"xX c #6AACCB",
"cX c #66AAC5",
"vX c #73AAC8",
"bX c #67B2CD",
"nX c #76B3CB",
"mX c #62A6D1",
"MX c #6DA5D2",
"NX c #6BABD4",
"BX c #64ADD4",
"VX c #63B3D3",
"CX c #6BB3D3",
"ZX c #65BCDC",
"AX c #6BBBDA",
"SX c #69B6D8",
"DX c #73BDDC",
"FX c #74B8D5",
"GX c #6BC3DD",
"HX c #79C6DE",
"JX c #6AC5E2",
"KX c #78CAE4",
"LX c #82BED8",
"PX c #87C6DD",
"IX c #91CADD",
"UX c #88CFE5",
/* pixels */
"kXzXrXzXzXeXgXzXG 7 A N 7 q }.i.i.t.t.OXpXqX0XpXqXmXB.( 1.) -.k.0XwXh.< q.Q 8.oX2X4X4X7XyXtX8.w C C C h.P.U.$X9XlXK $ J t $ @.rX",
">.].cXzXgXgXVXK 7 A N q 9 i.|.r.p.r.XX0X0XpXpX0XqXpXL._ _ ^ q.1.6XwXh.A } ' Y.2X2X5X7X7X6X3Xq N G C c.Y.I.%XjXjX+.X ^ wX*., $ y ",
"; 1 ,.].xXxXK 6 v S p q ! s.w.w.t.P.OX$X&X$X0X0X0XrX!.~ G ^ | ) 0X6Xc.W Q C.oX2X2X2X7X6XsXN d G ~ T.C.U.Q.,XcXm.$ A 6XrXz , $ = ",
"2 a a S *.M.5 d F g u N _  .9.9.P.I.E.%X%XW.0X%X%XkXnXT T ^ _ ) Q.$Xh._ 9.Y.3XoX2X2X2X6X^.q J G ~.P.I.$X9XcX_., $ Q.rXm.$ < 1 ; ",
"t d A G d J 7 N A t u v ^ [ q.0.E.I.$X$X9X8X8XQ.$XnXg.6.F ^ #.#.^.n.=.<.Z.I.OXoX2X4X6XFXf f G jXB.A.!.:XkXg., > > Z.dXh 1 r 1 ; ",
"t d G G A f d A n @.u v R [ 0.L.I.Q.$XrX5X6XQ.'.cX/.X ; g F K #.j.=.h.k.P.T.U.5X2X6XGXf.e S &.I.C.$X9XkX].# f p 6 ^.zX< 2 r ; 1 ",
"t f G L J q d A S ~.u g G } 9.OXI.Q.5XtXtXtX6XfX`.o - 6 a ^ ^ #.$.R #.<.A.Z.L.3X5XdX_.m.r S O.F.Z.%XhXnX*.w % > 7 ~.m.< ; ; ; 1 ",
"7 d N G G 7 7 K v.F O.a G  .r.4X4XyXyX7XtXaXsXgX$ $ 0 N { R Y Y Y H ^ A _ Z.T.8XdX~.j & K q m l.F.%XhXM.: 7 > , # g.g < r ; = ; ",
"< 7 q A d 7 T -.q - r z F } a.4X7X7X6X7XtXfXGX: @ 0 N W D n M #.#.H W e q z.$XgXc.@ # & u n R b.F.hX[.> 6 7 p 7 > 4 e r s = = ; ",
"&.K d n f T -.A & 2 t a D 1.OX4X7XtXaXaXsXdXw : w V / W b M #.%.Y 2.A e - ) 0X!.$ % u m n $.W F.!.nX> 7 7 7 q p A p e u o.b.>.>.",
"Z.x.c.h.-.( A % r r a R ~ -.1.0.tXaXaXaXfXL # w v u.[ D M %.#.Y R 2.a u s A F.& 3 u A e T <.[ ;.o.g.> q 7 n A G G n 4 u R.n.m.b.",
"^.V.l.l.-.G > i y O.v.T.Z.( K _ 2XaXaXfXL # w Z d.4X/ D F F #.D k.m.n u 4 &   O 9 O.s F { ..[ F , f H q A A D V n n u 5.W.R.F.b.",
"x.h.j.j.K - r y #.lX;X#XV.: O ! s.aXfXz.# 6 Z d..XdXT v v M D ;.H 7 O.M p &   & S s m $.3...{ F p q A m A F V M M p =.~.E.R.b.b.",
"V.j.2.o.s 1 u O.(.S.V.H.) 6 O C r.aX6X# : d oX.X5XqX%XZ.c.) 2.&.> % & 9 V v - * - u Y <.<.3...=.Y F F R A Y M D n m R.F.b.b.b.b.",
"k.;.#.s 1 s O.(.D.S.V.=X~ 7 O Z 9.a.# % f T.|.d.w.e.w.i.$XLXIXp > : 4 : 6 V u % 4 M R <.4.....{ $.W W ~ T Y D m u 5.M.,.k %.v.5.",
"2.Y - - 1 ,.(./.b.V.Z.3XA w O N ! : % 6 Z.a.u.d.u.i.C.Y.Q.!.nXp 5 3 4 5 4 p n 6 u D R <.G.......{ W W W R D u #._.~.O.- 4 i ;.;.",
"R 4 & s O._./.5.b.V.A.pX7 7 % Z p , e ..u.w.d.u.{.|.P.U.U.rXvXp 3 3 4 3 b 4 M M u M Y <.3.3.<.{ W W W U G F l.C.9.'.> , w 4 ^ =.",
"6 % - n 1X/.5.5.S.B.I.BX% q 3 N t e { i.} u.d.i.{. XOX$X$XzX~.6 3 3 b 3 8 b M %.u M Y <.{ <.{ W R Y D R =.~ B B | U.# w q 5 v D ",
"& % p D.(.K.5.4.B.B.OXrX% 7 d q a 4.V. .X.XX|.|.}.5X$X%X%XbXM.9 4 8 + x b 8 n %.n n Y { { $.W Y Y T W n 8 c B P q.) $ 0 Z c 3 3 ",
"- n H.J.5.5.D.#X=XOXuXQ.0 w 7 G R.Z.{ ..p.XX|.}.5XpX*X%X9XCX^ 4 4 x x b b b b %.=.u F W $.W #.G.2.F n N V C ! ~ h.7 : v P v O 3 ",
"u K.K.H.=.#X;X#XOX4XgXw 0 C A $XV.3.....OX@X@X+XqXpX%X*XhXCXv 4 x + x b b B U Y 5.i F W ^ U kXOXI...W G C U T ~ z.# w v Q P O O ",
"2.D.4.#X=.#X#XE.4XY.q 0 q Z -.E.3.<.4.B.+X+X+XpXpXqX%X%XzX8Xu 9 x x B I X.U Y %.6.i Y Y D :XB.y.y.y.i.i.t.0.| | c.# w C Q P 3 3 ",
"#XJ.-X&X{ +XOX&Xz.6 q q C ! h.=X<.4.4.A.+X&X&XpXiX*X%XkXbXk.9 b x x I I E E %.,.>.i S M 4.#X..p.y.y.y.w.u.{.5XZXc.% 8 B I P 3 w.",
",X<X,X&XQ  X8Xk.> 6 q N E ` z.S.3.V.4.#X&XpX*XmXiX%X,XkXCXR u b B I I ` E W %.,.O.a n A MX3.p.{.w.y.p.i.i.i.s.0XkXO 5 v P P Z A.",
";X,X,X&XC gXh.: > p N F ( [ V.B.4.#XV.-X&X0XqXmXmX*XqXkXbXM u v I ] ] ` [ W %.,.i u u <XJ...p.p.w.y.u.i.{.|.oXdX~.-.5 c N B c A.",
",X,XmXpX8 q 5 > w d A R _ } 3.V.4.H.V.*XqXqX*XmXqX%XhXjXrXa u D ` ] y.] [ W %.%.i u m.;X4...p.y.y.i.{.{.}.oX5XSXp 4 G 5 0 q w A.",
"<X,X&XyXq % 4 0 q A F ^ [ [ 3.V.V.V.S.,XqX%X;XlXqX*XkXxXn.u i U ` X. . .X.$.%.%.4 #.MXS.3.X.{.y.{.XXoX@XoX4XGXc.6 5 0 v 5 3 8 V.",
",X-X+XXX: A J a m O.#.W X.[ 3.V.S.V.#X,X*X;X:X,X,XkXcX_.u u i R E ` ] X.<.W %.m u MXK.S.3.B.{.{.XX@X+X+X5XsXCX3 5 v N v 0 8 O B.",
"-XpXC.% # > e k a o.^ { [ { 3.S.S.S.qX,X;X;XkXkX:XhXR.9 u e m Y U E ` X.W Y $.4 K.;XS.4.4.XXXXXXOX&X5X3XuXAXF 5 b b V V V v 3 B.",
"&Xe.* & e a m o.F i R ( | X.<.S.V.E.*X,X9X:XkXlXjXR.m p u e v Y Y U W W W W Y $.<XD.4.4.XXOX+X+X$X&X5X6XfX'.> v Z V I I P v c C.",
"e.* * 1 u n F $.=.$.S A W { 2.b.S.(.:X;XmX,XjXjXm.7 u u p q n U U U W U U W Y <XK.K.V.H.*XOX5X0XpX0X0XsXGXA 9 Z C I ` ` P 8 P {.",
"$ * * ; e n H $.2.<.{ R n E 2.S.D._.<X:XkX:XzXR.S ;.vX@.9 v U { $.E Y E E <.;X;XK.W.H.%X5X&XzXdXtXuXsXJXK 3 v P I [  .` B 0 [  .",
"= = = s 7 n D $.2.l.<...Y n $.S.H.:XlXkXkX].m._.FXPXUXK ! *.v.h m $.E I { H.<XK.K.E.#XqX&X!.wXrXsXuXfX9X5 9 V I /  . .I 8 @ % % ",
"s s e 1 e p D Y <.<.<.3.<.Y S ;XjXR.-.m `.lXzXxXCXKXUXN c.c.f a u M | / 3.,XJ.K.D.#X%X9X%XrX0XtXtXsXGXG 9 N V U E [ / D @ @ % & ",
"1 e s k r a F R { <.4.<...{ Y s a S u v.>XlXlXzXSXHXnXq =Xx.t r t y D X.<X(.(.K.J.lX:XiXiX0XiXuXsXJXR.3 c Z P P D R U 3 @ # & - ",
"-.o.O.i O.( Z.T.k.{ <.<.{ =.#.;._.H.o.vXjXxXxXVXZXHX~.N 8XkX< r e e e j.<XK.K.K.;X).9XqXsXuXsXuXfXbX3 6 Z b v Z b V u % 3 & p &.",
"^ #.Y F C.&XqXqXzXE ( =.$.$.;.).MX4.'.NXNXNXNXSXAXKX*...5XHX< t < t t *.D.K.K.(.>X:XqXuXwXeXsXsXJX+.5 0 b 0 w V Z 9 > & & @.vX=.",
"^ K +.F E.eXeXkXPX3.W $.#.=.(.>XMXb.FXNXNXNXSXVXDXPXF Q.wXPXg., t f a J K.K.(.lX:XhXqXwXiXsXsXJXjXO 5 5 A j.:., : q 3 3 @.jXnX-.",
"+.+.O.G $XeXqXzXm.H ^ R %.).(.<XMX;XNXNXSXSXZXAXHXPXJ cXL.L.gXcX`.t t O.S.G.#XjXhXqXiX0XuXsXJXPX% : 3 A 1.~.g , : 7 3 5 ~.vXg.J ",
"K J a ~ 5X0XqX~.& D T D b.K.(.vXmXmXBXSXSXZXZXZXKX].*.c.z.Y.Y.6X[.> 1 O.j.H.S.kXkXrXwXdXfXq.~.f : 3 9 ~ h.c.> : 6 : % f.'.vXg +.",
":.*.e | OXpX!.- e D Y v K.(.lXMXMXmXNXSXAXSXSXDXUX) n.f.z.P.r.s.FX, l z ;.F.W.kXhX9XsXsXfXQ.. # % 6 G ( ^.f , w G % N L.bX@.+.*.",
"2.+.> | E.z.& - 9 U v o.J.lXMXMXMXNXSXSXAXAXDXHXPXp n.h.z.0.8.s.HXr l k :.G.:X9XeXqXsXfXGXCXX . # 7 ~ ) g.% 0 G N 3 ) U.].J &.*.",
"v.f q | 3.e * e n v & K.,XMXMXMXNXSXNXSXDXSXDXKXkXp m.q.0.' 7.r.bXk l k ^ ).hXiXsXiXfXZXUXf 3 & @ 7 _ N.: 0 N ~ % A L.nX@.K -.g.",
";.e C { > @ 6 a n % 5.W.MX>XlXMXNXNXSXFXNXFXDXUXc.a M.h.! 8.9.s.wXz r l K kXiXgXiXfXfXKX_.5 c n e F z.g.: d C d w k.cXM.J &.-.j.",
";.6 P 4 @ : u M & 5.;XjX<X>X:XlXlXNXCXCXFXDXKXKXK A l.! ! 8.9.s.6XO.r l f.jXhXrXfXfXJXUX0 Z V M u :.>.h > 0 N 3 L U.].f K :.;.v.",
"O.7 % % : u m s O.nXjXMX:X:X<X:XkXkXVXvXFXDXKXDXA A x.~ ! 8.9.r.wX+.r l >.~.hXzXfXGXUXJ Z P R Y m $ .   X : : w 0.cX@.J :.-.;.M.",
", > % > e i e u M.1X>X<X:X:XjXqXkXhX].kXCX].FXFXq A c.! ! 8.9.Y.dXK k r ,.`.!.cXZXJXn.c E W W R C , # L IXd : K '.].f +.:.;.;.f.",
", > 4 v n u s m _.1X1X:X:X<X,XhXkXxXmXrX9X^ a W N N z.! ! 8.0.6XsXc.y r O.`.9XcXGXcXd ~ W ( ^ E N C '.GXPXO d ^.cXh H &.>.;.;.O.",
"> 6 q v u e i a (.>X:X:X:X:X9XhXkXhXrX!.9Xk.q q A { Z.! ! 8.L.wXrXf.y r k m.cXbXCXq D ~ ^ ~ ~ G z.sXaXGXf.O f.Q.+.J K -.*.:.;.6 ",
"9 8 0 p t i i M _.1X:X:XhXjX:X%XzXcXrXrXwXU.~ P G 0X^.P ' 0.U.'.N.vX2 h k M.jXxXo.a U H F N q.3XY.s.7XGX+ 3 U.h.f L K :.-.>.=.> ",
"6 H Z.>.r u 4 o.,XkX_.).%X_.(.hXqXrX%X8X8XwX2X~ I.iXZ.C q.z.U.f.KXnXh y 1 6.jX`.e a S S ^ U.}.r.r.Y.7XQ.: 3 f., f @.-.f.:.-.S 6 ",
"~ { ..J 1 i 4 k.zXxXhX)._.:X!.%X%X!.8X8X8X8XAX..zXI.^.P ) z.^.Q.dXnXt y 1 g._.1 6 u O.x.a.w.7.7.s.2X6Xf.6 > : , ) ^.7 K :.;.5 7 ",
"....l.< , S x.L.Q.rXSX!.W.).W.W.~.$XQ.Q.U.I.oXmX%XE.^.q.h.z.j.3XuXnX, f z ,.k s s ,.~...' ] 7.7. X2XgXd w : 7 x.U.T.: f &.+.% q.",
"3.k.:., ;.z.A.E.rXgXVXbXn.R.E.~.E.U.U.L.L.Y.0X*XI.E.Z.) h.h.h.3X7XFX- 2 k r = ; 2 ~.| Q ' 7.7.s.2X3X'.% w 0 z.^.Q.U., > A p _ 0.",
"b.4.< H k.L.U.qXiXeXVXVXT.b.Z.I.L.^.U.Y.z.$XmXI.I.E.A.1.1.H U.OX3XGX$ p o o - - *.Y.Q ` 7.8.s. X XwXf.% 7 G h.T.Q., $ : 7 0.A.C.",
"x.:.< k.| Q.0XrXeXiXfXVXFX@.j.Z.Z.Z.Z.C.$XpXI.H.H.=Xz.| K ^.Y.U.4XFX% < r o = & T.w.` ' 8.s.a.2X7XsX, w 8 G c.Q.t # # > [ Z.F.^.",
"b.t &.h.j.$X0XgXgXVXZXVXcX@.H c.z.z.z.Q.5X=XH.H.I.E.c.-.-.Z.Y.U.OXnX- , S o = 7 Y.' ' ] s.}. X X7X3X> 5 w 7 ^.f # , O ) L.^.F.F.",
";.z v.2.x.8X8XeXiXVXVXHX*.f A F k.0.z.iX$XH.H.H.H.$Xz.^ -.z.L.I.OXCXr < a - X ) r.` ' s.s.}.2X X'.h.3 5 w w f # w : ..Z.Z.R.G.~.",
"a j.f.^.N.Q.qXiXzXzXcXnXt G A , A 0.zX+XA.I.E.$XkXBXk.o.z.x.Z.I.$XSXy 2 t e * OX] ' r.s.}.}. X7X'.G 5 w d : : : O ) Y.^.m.`./.m.",
"&.v.j.Z.T.!.rXzXVXbXK g.+.H y = , Q.+XI.A.=XmXkXmXmX) z.0.C.Z.L.Q.BXg < < t -.Y.' ] |.}. X X7X3XwX7 w 0 N # # % q.Y.^.N././.M.2 ",
"N.f.j.~.R.!.rXgXzXbX^.2 r y y $ G pXXXXX0XmXmXmXmXmXz...k.C.z.Z.$XrXS ; k O.T.0.' r.}. X X X3X8XQ.> 7 q q # O | I.T.T.R.).@.o z ",
"j.j.Z.Q.8X9XkXgXgXzX-.f y 1 2 f 5X+X0XpXqXmXqXmXmXpXz.| 0.0.V.Z.8XwXO.r k f.Z./ 7.}.2X2X2X7X6XwX-.7 + d : @ h.I.U.!.hX].g $ X m.",
"j.l.!.Q.rX9XrXBXgX'.7 p F < t Y.5XpX&X0XqXmXmXqXqXmXz.q.0.h.k.C.0XwX-.r z x.0. .a.oX2X X2X7XaXq.7 G d d % | I.U.$XhXhXh X X t Q.",
"m.~.9XrXrXeXdXVXrX7 p S f < ( oX+X&XpXpXkXpXqXmXqXeX0._ 0.h.h.z.0XwXf.s H Y.t.Y.2X X7X7X7XtX2Xd d N C w h.P.I.$X:XhXh , X X f.rX"
};
