/* XPM */
static char *d588116bb7a74676b6bd4c3672feb1f2[] = {
/* columns rows colors chars-per-pixel */
"64 64 256 2 ",
"   c #3C312B",
".  c #3B2018",
"X  c #481E11",
"o  c #48271B",
"O  c #52291B",
"+  c #59311E",
"@  c #492C23",
"#  c #542E24",
"$  c #4A3429",
"%  c #5C3A2C",
"&  c #573528",
"*  c #473932",
"=  c #573C33",
"-  c #673A28",
";  c #763B29",
":  c #633E33",
">  c #60301A",
",  c #4C433A",
"<  c #584539",
"1  c #68422D",
"2  c #76452B",
"3  c #654434",
"4  c #6C4434",
"5  c #6C4B3C",
"6  c #67473A",
"7  c #734533",
"8  c #7C4433",
"9  c #7C4A34",
"0  c #734B3B",
"q  c #774A3A",
"w  c #7D523C",
"e  c #74533D",
"r  c #6E543C",
"t  c #4A4843",
"y  c #574C44",
"u  c #59534A",
"i  c #575655",
"p  c #4E5A50",
"a  c #674C42",
"s  c #764D42",
"d  c #6B5344",
"f  c #675648",
"g  c #7B5342",
"h  c #745B4C",
"j  c #7C5C4B",
"k  c #775645",
"l  c #685D55",
"z  c #775E53",
"x  c #7B634B",
"c  c #6C635A",
"v  c #786556",
"b  c #7B705E",
"n  c #696A66",
"m  c #756C67",
"M  c #767368",
"N  c #797774",
"B  c #687271",
"V  c #576A6C",
"C  c #863E28",
"Z  c #854A2D",
"A  c #98472C",
"S  c #894C36",
"D  c #934C35",
"F  c #974D36",
"G  c #82533C",
"H  c #8B563B",
"J  c #9B5434",
"K  c #93543B",
"L  c #9C553B",
"P  c #955A3C",
"I  c #9C5A3C",
"U  c #965435",
"Y  c #A3492D",
"T  c #A45534",
"R  c #A45A34",
"E  c #AB5B35",
"W  c #A35B3B",
"Q  c #AC5C3B",
"!  c #A75438",
"~  c #B35D3B",
"^  c #B75B38",
"/  c #A9522E",
"(  c #9D603F",
")  c #AD633D",
"_  c #A6633D",
"`  c #B3633C",
"'  c #BA633C",
"]  c #BC6B3C",
"[  c #B76538",
"{  c #C65C39",
"}  c #C36B3D",
"|  c #C7673B",
" . c #CA733D",
".. c #D3753C",
"X. c #845542",
"o. c #855A44",
"O. c #8B5B44",
"+. c #895A48",
"@. c #935B44",
"#. c #9C5C42",
"$. c #955945",
"%. c #A35C42",
"&. c #AA5D41",
"*. c #A45C46",
"=. c #B45E41",
"-. c #84624D",
";. c #8B634A",
":. c #9C6145",
">. c #93634B",
",. c #9B634B",
"<. c #97674A",
"1. c #846453",
"2. c #8C6A54",
"3. c #896856",
"4. c #946B54",
"5. c #9B6C53",
"6. c #946856",
"7. c #8B745C",
"8. c #98745B",
"9. c #A46344",
"0. c #AC6443",
"q. c #AC6944",
"w. c #A46449",
"e. c #AB654A",
"r. c #A46A4C",
"t. c #AB6B4C",
"y. c #A36944",
"u. c #B36443",
"i. c #BB6442",
"p. c #B46B45",
"a. c #BC6C44",
"s. c #B36C4B",
"d. c #BB6D4A",
"f. c #B36649",
"g. c #B3734C",
"h. c #BC734C",
"j. c #BC7347",
"k. c #A46C53",
"l. c #AA6D54",
"z. c #B26D51",
"x. c #AC7354",
"c. c #AA755B",
"v. c #AB7B5B",
"b. c #A57558",
"n. c #B47453",
"m. c #BC7552",
"M. c #BC7A54",
"N. c #B37C5D",
"B. c #B87958",
"V. c #AA714E",
"C. c #877667",
"Z. c #977963",
"A. c #857B73",
"S. c #8D766E",
"D. c #A67B63",
"F. c #B57E63",
"G. c #C36D43",
"H. c #C66B44",
"J. c #C57343",
"K. c #CB7444",
"L. c #CC7A44",
"P. c #C4734C",
"I. c #CA754A",
"U. c #C4794D",
"Y. c #CC7B4C",
"T. c #D47544",
"R. c #D47C45",
"E. c #DB7B45",
"W. c #D37C4C",
"Q. c #DB7D4A",
"!. c #D57546",
"~. c #C47C53",
"^. c #CB7C53",
"/. c #C37D5A",
"(. c #C67854",
"). c #D27549",
"_. c #E17E46",
"`. c #7D8575",
"'. c #DC823F",
"]. c #BC825B",
"[. c #A9815E",
"{. c #99846A",
"}. c #8A8879",
"|. c #9B8A77",
" X c #95917A",
".X c #A98569",
"XX c #BB8563",
"oX c #B88767",
"OX c #A78B77",
"+X c #B58B72",
"@X c #A8957A",
"#X c #B99576",
"$X c #BB9169",
"%X c #B5A67E",
"&X c #CA814F",
"*X c #DC8344",
"=X c #D4814C",
"-X c #D8854A",
";X c #C48256",
":X c #CC8254",
">X c #C4845B",
",X c #CB8459",
"<X c #CC8B5D",
"1X c #C98959",
"2X c #D38353",
"3X c #D48A55",
"4X c #D38C5B",
"5X c #D88855",
"6X c #D3925E",
"7X c #D7935C",
"8X c #D29256",
"9X c #E3864A",
"0X c #E29056",
"qX c #C48B63",
"wX c #C88A65",
"eX c #D28C62",
"rX c #CB9365",
"tX c #CC956A",
"yX c #CD9B6D",
"uX c #C5956A",
"iX c #D39363",
"pX c #D29B6B",
"aX c #D99867",
"sX c #CB9C71",
"dX c #C69875",
"fX c #D79B72",
"gX c #C38C71",
"hX c #CAA274",
"jX c #D5A677",
"kX c #D9A36C",
"lX c #E2A977",
"zX c #E2B076",
"xX c #E69560",
"cX c #637A82",
"vX c #73A895",
"bX c #7CBCAB",
"nX c #6A8D89",
"mX c #988C88",
"MX c #929288",
"NX c #A69986",
"BX c #B79A84",
"VX c #A5978F",
"CX c #92AA95",
"ZX c #B8A487",
"AX c #A9A499",
"SX c #B4AC93",
"DX c #B3B3AD",
"FX c #9BAAA3",
"GX c #C49983",
"HX c #C6A486",
"JX c #D1AC8D",
"KX c #E6B484",
"LX c #C4BDAA",
"PX c #BCC4B3",
"IX c #C6C7BA",
"UX c #C7CBC6",
/* pixels */
"G.i.` =.&.z i p 3.s & ) +Xq.R T R E R R E M.B.[ Q ~ ' a.R [ x.#X( 1 $.N t u %.#.%.Q 0.0.e.q.z.t.r.e.V.2.n m 3.l.s N.u.&.e.u.s.a.",
"~ ~ Q %.! -.* * +.+.# #.[.O.R W I U J E _ {.8.~ a.1Xr.I ` ) e w ( % q.B t < $.w K L #.,.w.,.#.w.k.e.t.l.t * 0 Z mX=.=.=.*.u.~ ~ ",
"i.u.u.%.Q :.N v q 1.o S x ;.q.9.( R U ( P r r ;X1Xo.V.` ` ) #.G y.o F B c C.;.+.+.-.;.-.+.6.{.Z.O.@.k.>.m C.- |.=.&.=.^ { i.i.H.",
"6 5 h f = 3 = = & # o O O + - & - 1 w x ;.o.r w 7 H Z G G y.U H Z > 2 < 6 4 3 = : % < 3 & < < & 5 f a a , y y C.d 3.d : s -.0 < ",
"m.B.v.b.7.3.3.3.+X{.@XMX X@X@XNXOX.X}.}.A.{.h <.lXiXeX,XI.P.G.` ` ) _ _ u.q.g.j.g.p.g.t.0.y.y.e.q._ 9 r ZXNX.XN.D.HXSXu }.ZXoXF.",
"l.c.b.k.t.t.f.f.LX$XM.(.^.L.Y.h.P.b.V.-.LX2.5 V.<X<XfXeXm.d.t.u.p.g.g.g.g.g.g.g.g.p.q.Q ) d.m.f.) _ 9 5 }.3.I :.( Z.N = Z.VXC.t.",
"{.+Xx.z.d.P.h.(.f >.(.~.U.I.~./.M.c.k.o., o.y r./.fX>.8.wXn.B.n.j.j.j.j.h.M.M.;Xg.j.] i.P.lXdXgX~._ 2 v a g ` r.y.v b @ S.< 4 ,.",
"s.F.;XY.^.^.W.W.8.q.^.eX<X,X;X;XM.n.r.P u G y H k.2.MXUXmX^.m.~.K.J.K.J.J.L.J.J.U.K.K.| 7XOXPXAX5.W 2 v +.y.d.XXe.>.O.@ Z.0 H ,.",
"U.h.qX=X^.2X2X=Xb.q.4X:X<X,X:X,Xh.n.y.O.d w < 3 x.1.t m l h.U.U.Y.L.K.J.K.K.K.U.U.L.L.R.p.C.`.N 4.J - 1.t.p.H.(.t.#.3.o a 8 $.d.",
"].h.<X:X1X,X3X:XK.} :X2X:X;X~.~.M.t.:.w 7 q < H q.k., u 2._ P.U.L.K.J.J.K. .L.L.K.L.=X} i.1.l f x.I ; j s.P.} (.s.%.; % 8.$.@.z.",
"w.g.&X~.M.;X>X3X$X2XL.U.].M.m.n.t.>.+.9 |.2.< O.q.:.o.1.H U J.K.L.J.J.J. .K...L.=X&X` [ E p.<.8.( L 2 G d.I.H.K.' A AXz 5.D.W @.",
"@.x.n.x.V.n.g.z.IXl.m.n.M.s.V.r.:.X.r 8 {.l % ;.0.W K O.I [ [ ' [ ] G.] J.}  .L. .) ) W _ I 5.P U I 2 d G.K.).T.^ D.K : 7.%X@.+.",
">.<.>.>.5.Z.Z.D.u X.c.c.b..XZ.4.1.j f e i a # BX0.P U U ~ ! E E ` j.a.G.J.} a.p.q.g.q._ ( P P P :.9 - r d.K.K...u.F J 3 VXi S $.",
"2.c y % j G H o.z X.1.6.o.g X.r = a & $ @ o @ # 6 5 r 1 - & - + - + O O O o @ # + $ < f x -.4.5.H G 2 x d.K.K.H.' ^ D 3 k k 2.3.",
"R I Z.o x +X+XVX+XGXgXwX,XgXrXtXBXJXHXSXZX#XF.N.c.k.k.c.n.c.z # MXOX+XOX@X@XCXMXl $ CX,.[ g.p.,.VXG 0 3.G.J.K.| ' Q S g .XD.~.d.",
"Q p.2.@ 6 ,.4.e.&.f.l.H.f.z.+XBX(.P.>XkXJXJXJXXX(.(.^.^.(.(.5.k BXU./.B.g.O.Z D.% 2.V./ ` P.L.I < X.& -.i.a.G.a.=.! S f k 3 U.K.",
"W z.3.@ a +XMX|.*.=.z.i.d.D.GXm.(.(.^.B.f.HXSXdX/.^.^.^.^.^.z.S.wX(.d.%.G y s ,.4 Z C i.{ | | i.e $.: x ` =.) ~ ! L 9 z X.O.' ] ",
"i.a.;.# a n UXN z =.i.d.c.gXB.wX(.I.H.f.c.VXVXD.5X,X^.,X,X^.(.VXd.h.e.L c . i +.q L (.| d.| { | H P 6 3.M.t.I W &.HX8.h H X.Q p.",
";.OXq # f y , * d f.=.f./.GXGX/.(.).(.H.[.u f 6.W.^.2X,X,X^.,XXXm.h.u.%.6 V i O.: $.NX;.t.' ~ E H @.= 1.AXV.:.L &.y < q ;.o.W W ",
"; * 7 # u X.u f s z.gXBXJXVXf.(.(.^.(.H.g.A.v (.-X5X3X3X,X,X^.^.(.G.=.! ; a 6 K = Z.t w ! T J P >.1.* l p $.W J F y l s 9.! ! %.",
"6 & # # d w a a j 7.NXIX1.f././././.,XK.I.,.u.=X8X7XaX8XiX<X>X>X/.h.i.E D q Z K = * * t , y t t t t   $ a a a r k 3 < & j 4.;.w ",
"b CXbXk u d l f G +.6.s w.M.>XqX<X1XwX^.I.p.H.xXzXhXjXhXyXyXwX>X/.(.u.~ J A F D = b CX@XNX|.@X@XOXD.5.,.l.c.N.c.F.D.c.c.b.7.7.{.",
"B Z.OX- f 6 4 8 X.1.+.$.m.B.>XqXwXwXrX,XY.G.L.xXKXKXjXjXpXrXqX^.(.m.d.&.W J A D = -.z.Z.3.,.9.~ =.t.V.z.s.s.0.0.e.9.9.*.,.$.1.m ",
"N c j & h 8 8 X.+.;.@.z.].qXqXuXqXrXrX<X^.L.=XaXKXKXkX<X&X&X,X;X/.(.u.! L ! Y D = o.h A.N h k.e.r.b.n.h.j.h.(.m.d.d.i.i.&.:.6 MX",
"* a vXy d 8 G G O.$.s.M.$X#XZXuXrXrXrXtXiX5X3XkXKXzX,X^.K.Y.;X1X;XU.&.! l.Y A D = 3.s *   f b.d.H.].].~.>X1X>XqX^.K.G.H.u.$.q * ",
"u M nX% s 8 8 S F W s.M.$XuXuXuXyXtXrXyXaX7X7XkXzX<X:X&X^.^.).^./.G.e.>.z.Y A +.= A.6 < f X.|.U. .).wX<X<X<X<XeX2XR.T.K.a.9.@.t ",
"3 w x $ X.D A J ! p.z.].$X%XuXsXyXtXyXyXaXaXxXzX6X:X:X<XjXI.K.a.U.d.6.BXY Y A 6.: y 7 a a $.c.T.T.!.eXiX<X6X<XiX2XE.E.K.d.XXD.l ",
"3 7 d @ $.J ! W Q H.B.>XuX#XdXsXyXyXyXsXpXaXaXkX2X2X6XhXhXK.K.a.P..XS.0.Y Y *.mX% y D.S h t.U.K.Q.!.5XiX6X4X5X6X5XE...&XqXdX#.7 ",
"; q a @ +.*.l +Xi.} /.XXqXdXsXsXsXsXhXpXaXkXlX5X2XW.sXjX^.).K.a.F.s z.Y z.VXFXA.o vXk.; 5 I.G.K.W.T.5X6XeX2X4XwX5XQ.L.<XXXL ^ S ",
"eXm.a @ X.N DXA.XXP./.qXqXdXsXhXsXfXpXpXkXaXaX=X2XW.Q.L.).K.K.M.6 l.Y ^ S.VXl l z 1.,XP.u.i.' H.Y.T.5XeX2XL.,X<X=XY.&XM.i.H.' eX",
"PXVX$.$ s i n p m.E (.XXrXuXhXhXpXpXpXpXaXaX0X=XW.E.!.I.I.K.M.C.S./ ^ ^ }.z y B a 6.gXMXBXm.i.a.~.U.^.~.P.P.~.~.^.U.~.} i.=.f.mX",
"i u k.@ X.<   d u.H.h.>XqXuXhXhXpXpXpXaX0X7X5X-XQ.E.T.).W.~.[.v D.{ { =.mX$ a l % 7.= mXi 4.=.u.t.g.M.d.h.m.m.(.j.~.G.i.Q &.z.t ",
", d 7.. +.h u *.s.G.P.>XuXdXyXhXyXaXtXaXaXQ.aX-XW.E.!.K.d.F.s UX! { { e.3.A.N C # }.+.  t y $.b ,.,.x.g.q.t.h.p.P.G.q._ ( W l., ",
"m 1.t o 6.@.g 9.d.h.P.~.qXtXrXyXtXpXiXaXrX5XI.Q.E.W.!.K.B.s DXF.{ { { l.$.S m C $ bXC.`.V v v x >.4.Z.Z.D.{.{.{.{.Z.{.7.4.O.5.7.",
"a y t @ 3.#.L e.i.a.P.(.;XqXtXtXiX6X6XiXhX5XW.E.!.Y.I.(.S VXJX! H.{ i.Y Y D z 8 - e b  XVXn Z.O.@.O.<.<.5 3.w G g 7 6 6 5 7 4 q ",
"x.x.s @ 6.L #.0.u.d.P.B.>X<XrXiXrX6X4X5X%XXXE.E.W.W.~.9 VXGX! ^ { =.^ ^ L S s C 1 ) _ S Z.Z.U J U p.y._ H +XeXtXq.N.+X+XoX.X.Xc.",
"t.=.6.o k.$.#.*.e.t.d.m.M.;XwXwX3X3X<X2X$X>XE.=XW.;Xq NXB.~ { ' ~ ~ ! *.F D s ; 1 H NXH <.) ) R _ 7.7.R 2 XX}.AXXXH.).Q.K.P.d.t.",
"i.{ 7.o 5.$.%.%.%.w.e.h.~.U.>XwX,X3X3X-X5X^.-XW.U.$.F.i.~ | i.=.=.Q W *.F D 7 S 1 Z $ ( U.-X .] [ 1 1 E S -.N mXZ.H.Q._.E.E.T.a.",
"{ =.7.o 8.%.#.#.%.%.w.t.(.M./.;X^.:X^.W.=X=XW.^.v.XX^ H.H.| ' ~ Q Q L $.D S S 8 & U P ] -X0X-X&X} R G ) Z 6.@ $ XXT._.9X9X_.T.H.",
"H.=.C.# 6.*.,.%.#.%.9.e.z.h.m.oXY.Y.K.).L.).:XdXuX' P.J.H.H.' u.Q W L $.F S S 8 & U _  .'.8X*X'.} Q I ) & +XMX7.).E.9X_.0X9XQ.H.",
"{ t.S.# 3.+.6.w.L L *.f.z.e.d.P.P.P.h.P.P.^.jXdXG.a.i.Q ~ i.i.u.W %.#.%.D S S 7 - ! `  .'.*X0X .[ T ) R 4 SX2.B.:X5X-XE.E.9X!.H.",
"m.f.C.@ k D.}.e.! *.L *.e.w.q.s.a.p.d.d.M.dX$.tX| &.=.u.u.i.i.x.i.0 z.0.wXgX=.8 : &.^  ...'.'.| ^ / P J 1 w k 3.x.^.xXxX9X-XQ.!.",
"m m 7.o 3.i FX|.Y ! L #.#.,.&.%.&.q.f.f.XXS.C.w.H.=.f.p.u.~ i.XXG v ! c.n DXZ.K 9 R / ^ | .. .| [ A Z I : PX7.F ~  .E._.R.W.W.D.",
"AXB Z.O m l n t %.L L K +.#.*.%.&.%.9.x.1.M C.5.i.f.0.=.=.~ d.& c e.! 1.n m v #.9 R [ ^ ^ ^ [ [ R q.U I + D.S U ' G.H.).L.J.P.S.",
"t = 3.# m n * , J X.S J G O.#.#.#.w..Xw.$.= * S u.&.u.&.W N., p Z.S L ;.t * 3.O.1 _ SXH R / R J R f A.H + 8.H P ) i.' p.d.P.d.= ",
"d a vXO i cXA.m 4.1.$.O.o.-.-.4.8.|.;.x.H +.C.#.%.9.e.9.BXu < PX>.k +.j nXm s v X v.& H ( _ I J I 4 * H # ;.>.@.@.:.r.k.x.x.b.6.",
", i = X @   = @ = # & # # $ @ # = . , * $ * y & $ , , * t . , l < $ $ * , 3 - $ X 1 e w 2 2 2 2 2 ; ; > X O + + & & - 3 4 4 : % ",
".X+XOXmXD.: +.1.v `.& F.eXfXKXrXjXlXlXfXrX<X+Xo.KXgX>XB.<XsXuXM.tXo.|.VXNXMXCXCXCX X{.{..X{.@XOX.X@X{.$X+X+X@XBXZX%XGXdXdX+XoX.X",
"*.:.$.,.ZXk c Z.,.C.e 2 b..Xg.) _ ) ) p.] ZX}.].E ) p.j.g.g.8.{.^.7 h c.XXN.k.v.t.Q e.r.x.b.x.v.[.D.[.p.JXJX$XB.v.v.b.k.,.:.>.,.",
"w.*.$.D.X.`.VXi >.6.-.Z h r y.j.j.&Xj.j.g.h x j.p.j.g.` _ s.0 d p.7 7.Z.DXN D.#X#X#XoXx.l.v.@XOX[.[.x.c.AXPX|.XXv.b.D.8.x.k.k.,.",
"e.w.L ;.g , c , C.l ; S H k p.;X&X1X8X;XpXb.V.] g.p.q.[ p.q.U o.Y.7 b , , t 4.IXDXHXHX$XN.N.oXoX]..XOX8.y y 4.M.[.v.[.x.k.v.v.r.",
"f.~ sXj ;.u   = l MX7.Z _ y.h.1XrX8X].rXj.j.] j.K.K.} ] ) p._ _ ^.9 h z t t 8.b.r.l.l.oX]./.].XXB.M.n.v.l l B.h.U.;XM.B.M.n.x.t.",
"i.wXZ.S.4 : l B v w H S j.g.,XrXyX].q.&XL.J.L. .L.L.} ] [ ) ) ) Y.7 f S l g v.w.t.z.B.XX/./.>XB.Y.(.,X>X.Xv.;XY.U.^.~.(.z.n.s.a.",
"L +.; o..XZ.u j @.@.G S p.~.<XrX_ )  .&X .L.=X'. . . .} [ ` ` ` ^.: z o.w O.5.t.h.M.>XgX>X>X,X>XW.^.Y.W.n.XX1X=XW.^.;X/.~.h.P.~ ",
"dXl.+X6.X.X.l k 3 o.H Z p.;XuXW )  . .&X&X-X'.'.=X . . .| [ ) ~ U.2 v O.o.@.t.d.P.,XgX>X;XwX1X1XW.W.2X-X~.XX=X=X=XY.,X>XP.{ F.SX",
"#.HX#.w.e.k.x w < w G Z ) ;X#.q.] ]  . .-X'.'.'.*X*XL. .} [ [ [ P.4 v $.O.,.s.H.(.,X>X<X<X3X8X6X5X3X5X=X~.$X=X-XW.I.I.(./.gX(.^ ",
"JXQ H.m.m.f.%.X.< 0 8 S 1.r.) ] ] ] j.&X'.*X'.0X*X'... .} [ ;XXXa.4 >.<.<.p.P.I.Y.<XeX<X=X3X8XuX5X3X5X5X;XqXQ.R.Q.2XK.| { H.u.K ",
"| J.K.P.H.H.&.K 6 q ; s %X+.Q ` ] p.j.-X*X*X*X9X*X*X*X .] [ Z.{.) 7 >.t.t.h.P.^.:XeXrXrX<X1XuXhX4X8X3X5X2X3X-X*X_.Q.W.).P.f.A JX",
"K.Y.^.W.I.i.F K 6 0 - H , P W ) [ ]  ...&X&X'.*X-X&XL. .] ] P r ) 4 <.V.V.U.^.;X:X<X6X1X1X&XZXSX7X8X7X-X5X5X9X5X-X5X2XU.z.W eX{ ",
"Q.W.4XeXH.! F $.q 0 - U H P E E [ ] ]  .=X'.-X&X&X'. . .a.[ q.r._ 4 4.w.q.~.;X^.2X1X<X8X4X3XhX, 6X3X3X9X5X5X-X3X4XiXY.~.z.5X| !.",
"=XQ.W.I.i.=.L O.q 0 - I U P Q ) ) [ J.&X&X'.=X . . .] ] p.p.) r.y.4 >.#.9.g.h.&X&X1XrX1X<X<X8X;X1X3X=X2X2X2X4X8X6X~.m.(.,X| L.2X",
"Q.W.).a.i.e.@.+.s a - I U I E R [ ] j.] ]  .=X&X&X .J.j.] p._ _ _ 6 $.w.%.&.p.p.P.;X1X1X8X1X&X&XW.&X;X:XW.W.1XrX1XB.P.,XH.j.I.W.",
"L.K.P.G.s.b.tX.Xg a - S _ _ R R / R R [ [ [ ] ] J.] ) ) p.p.q.q._ 3 $.k..X9.q.` p.i.j.h.].&X:X^.&X].>X,XlXfX;X~.g.g.gX| a.d.I.L.",
"I.J.i.i.&.+XVXAXl.a O _ I R J R R R R / R [ [ ) ) ) ) ` p.` p.` W & ;.MXN Z.%.Q ` u.p.) p.d.h.h.h.M.B.>Xm mXD.~ B.5.d.p.u.a.d.G."
};
