/* XPM */
static char *_1ab50085e1b4cc489905bac65ea64e0[] = {
/* columns rows colors chars-per-pixel */
"64 64 217 2 ",
"   c #2C2C34",
".  c #2F2F3B",
"X  c #302F35",
"o  c #35343D",
"O  c #39363D",
"+  c #34393F",
"@  c #3C3B3E",
"#  c #41373A",
"$  c #433C3F",
"%  c #4A3E3E",
"&  c #4C423F",
"*  c #353643",
"=  c #393742",
"-  c #363945",
";  c #3B3A44",
":  c #35374A",
">  c #353A4C",
",  c #3C3C4A",
"<  c #363D53",
"1  c #3A3E53",
"2  c #393F59",
"3  c #423E44",
"4  c #483F44",
"5  c #413E4A",
"6  c #3E404D",
"7  c #3C4154",
"8  c #3D445A",
"9  c #3C485E",
"0  c #444146",
"q  c #4D4344",
"w  c #44424C",
"e  c #4A454C",
"r  c #4D494E",
"t  c #534644",
"y  c #554A45",
"u  c #594B45",
"i  c #534B4C",
"p  c #5B4D4B",
"a  c #5B514D",
"s  c #434453",
"d  c #4A4652",
"f  c #474956",
"g  c #4D4A53",
"h  c #43465A",
"j  c #484759",
"k  c #45495C",
"l  c #4B4C5C",
"z  c #534D54",
"x  c #594E52",
"c  c #534E5A",
"v  c #594F59",
"b  c #4E515E",
"n  c #555155",
"m  c #5B5355",
"M  c #5D5957",
"N  c #55525B",
"B  c #5B545B",
"V  c #57585C",
"C  c #5D595C",
"Z  c #614E4A",
"A  c #64524D",
"S  c #6A564E",
"D  c #6B594F",
"F  c #645352",
"G  c #6A5652",
"H  c #625A54",
"J  c #6D5B53",
"K  c #61575C",
"L  c #645B5D",
"P  c #6A5D5C",
"I  c #735D55",
"U  c #715F5B",
"Y  c #6B625D",
"T  c #746154",
"R  c #796256",
"E  c #7C6857",
"W  c #72645B",
"Q  c #7B655A",
"!  c #71685F",
"~  c #7D6B5B",
"^  c #464D62",
"/  c #4B4E61",
"(  c #4E4F6B",
")  c #4D5163",
"_  c #4D536A",
"`  c #545463",
"'  c #5C5662",
"]  c #555965",
"[  c #5D5A63",
"{  c #535669",
"}  c #54596D",
"|  c #5C5C6C",
" . c #555C71",
".. c #5A5E72",
"X. c #5B5C78",
"o. c #645C64",
"O. c #685E64",
"+. c #635E6A",
"@. c #695F69",
"#. c #605F71",
"$. c #5E616E",
"%. c #5E6174",
"&. c #5E6178",
"*. c #656165",
"=. c #6B6264",
"-. c #6D6966",
";. c #64626C",
":. c #6C646B",
">. c #6E696C",
",. c #726564",
"<. c #796462",
"1. c #746A63",
"2. c #7B6C65",
"3. c #72666B",
"4. c #746B6C",
"5. c #796D6B",
"6. c #767064",
"7. c #7B7265",
"8. c #7C716C",
"9. c #7F796D",
"0. c #636374",
"q. c #6A6672",
"w. c #666875",
"e. c #6C6A74",
"r. c #636579",
"t. c #6A677A",
"y. c #65697C",
"u. c #6C6B7A",
"i. c #716672",
"p. c #736C73",
"a. c #796E74",
"s. c #726D7A",
"d. c #796E79",
"f. c #6E707C",
"g. c #767174",
"h. c #7C7374",
"j. c #7C7973",
"k. c #75717B",
"l. c #7B737A",
"z. c #7E787A",
"x. c #856C56",
"c. c #846C5C",
"v. c #896F5E",
"b. c #85705D",
"n. c #8B725C",
"m. c #876C61",
"M. c #826F6C",
"N. c #817566",
"B. c #8A7262",
"V. c #897866",
"C. c #82756D",
"Z. c #847A6D",
"A. c #8A7C6C",
"S. c #917663",
"D. c #917A64",
"F. c #9A7F65",
"G. c #907D6F",
"H. c #827573",
"J. c #887770",
"K. c #847A75",
"L. c #8A7D74",
"P. c #81767A",
"I. c #847B7B",
"U. c #897E7B",
"Y. c #927D72",
"T. c #967F79",
"R. c #8D816F",
"E. c #9B8164",
"W. c #97866D",
"Q. c #9B866C",
"!. c #97896F",
"~. c #9D8B6D",
"^. c #8D8175",
"/. c #86817D",
"(. c #8C827B",
"). c #938475",
"_. c #9A8570",
"`. c #958976",
"'. c #9D8C76",
"]. c #92857B",
"[. c #998779",
"{. c #94897B",
"}. c #9C8C7A",
"|. c #9F9277",
" X c #9E917A",
".X c #A0856A",
"XX c #A08B6C",
"oX c #A4906F",
"OX c #A18F76",
"+X c #A18E7A",
"@X c #A49276",
"#X c #A99575",
"$X c #AD9975",
"%X c #A3937A",
"&X c #A99779",
"*X c #AC9A79",
"=X c #B29B73",
"-X c #B19D7A",
";X c #B8A177",
":X c #B8A378",
">X c #6C6A80",
",X c #767281",
"<X c #7B7482",
"1X c #7F7880",
"2X c #817681",
"3X c #847B81",
"4X c #897E83",
"5X c #8C8382",
"6X c #8E8188",
"7X c #928684",
"8X c #958884",
"9X c #9A8C83",
"0X c #9B8D89",
"qX c #9E9184",
"wX c #A29386",
"eX c #A2948A",
"rX c #A7998C",
/* pixels */
"^.}.'.'.}.+X'.'.'.'.}.'.}.'.+X'.}.'.'.'.}.+.}.'.[.'.'.}.}.'.'.+X'.'.OX+XoX@X@X'.@X'.b '.`.`._.}.}.`.OX'.'.+X}.'.}.}.}.'.}.+XOX' ",
"A.#X@XoX&X@XOXOXOXOXOXOXOX@XOXOXOXOX'.OX}.l oX'.}.'.+X'.}.}.@X}.}.'.}.'.OX}. XOX'.'.j `.@X'.OXOX|.}.'.OX@X@X+X'.}.+X@XOXOX&X@Xc ",
"g.;X=X$X$X$X=X=XoXW.=X$X#X#X@XoXoX&XOX$X8.l $XOX$X$X=X_.W.4.C.#X@X'.OXOXW.$X'.@X@X~.s j.;X&X#X#XW.#X=X=X_.2.A.+X@XA.L 5.Z.-.+Xc ",
"g.*XZ.).`.L._.-.' C H.q.p.8.P J.H.H.h.L.| k -X].G.U.^.K.} ;.:.e.Z.'.{.qXC =X[.G.].Z.7 d.@X^.I.>.>.U.l.l.O.' K h.k.3.B O.+.p.l.l ",
">.I.e.p.t.e.h.3.o.[ >.;.0.p.v C.:.q.:.h.| )  Xg.l.g.d.z.| ;.0.0.C.2Xl.2X;.^.k.e.d.g.7 w.(.s.s.:.5.k.u.s.l.O.o.5.,Xd.h.I.s.f.a./ ",
"e.h.p.e.q.e.q.3.' o.:.0.;.p.M g.;.q.@.p.| ) (.u.q.k.f.s.q.| q.| 8.k.s.u.p.s.w.f.u.s.7 u.(.d.p.p.K.u.s.u.s.i.3.K.u.u.k.u.;.u.a./ ",
"q.g.e.;.t.q.e.q.' ' p.0.q.g.o.p.;.q.:.l.| l 3Xq.q.0.r.0.;.#.#.[ l.0.0.0.s.0.0.0.p.q.w u.I.u.e.:.<Xk.u.u.p.q.5.s.s.p.i.s.q.p.e./ ",
";.I.>.0.#.0.0...' c *.| | e.C >.p.;.| @.` l g.q.q.;.;.q.} ' l j +.] ` ` ` ) ] o.' { 7 w.p.q.q.0.+.+.| ' ` l N ' ' ' ] ' ] ` / k ",
"..` s h k k k k k l h k k / N / l k k s h l ` h k h k h h h h s h h h h h h h k h ( 1 | j j f s f f h f j j s k k k k h f 5 s 7 ",
"` k 7 s h h k h h h h h k k k h h h h h h c k s h 8 h h h h h 8 h h h h h s h 8 h h - d , s s s 1 s s w s h f s s 7 6 6 w s s 1 ",
"6 1 : : * = , ; * - * = , , 5 5 6 - > , > + , , 5 e w 5 : * - - = > : = , z z r 5 * . * * * - - * w e e e w ; = = ; - = = : : * ",
"I J u 5 :.+.+.| *.C y Q.S.B.B.m.~ n :.o.N N *.e n.F.E.c.r 4.c =.3.[ c d m.Q.D.v.c.$ o.>.*.[ -.V $ F.n.n.n.x.z 5.O.v z C w t J I ",
"G J m.3 C 1 6 6 c w J B.U J J J Q 3 c s 6 , z 0 D.Q Z I p N 1 C 6 6 s p D.T J A c.Z z s , s d - A n.I A G E 4 M 5 w w e ; c.E I ",
"G Z J p d , , 6 s , m.P F F A G R t z s s s s p c.p Z A G e d f 6 s , J R J A A S E 0 z 6 s z + c.T Z Z A J S e w 5 e @ p I G A ",
"A Z S I ; s , s , 3 Q G F S F S I Z , d s f * R I p Z A I # n s s s @ c.J Z A A Z I t g 7 7 g q n.D A Z Z D c.q e 0 w O Q G G A ",
"G S I R 0 d f s ; p c.I G G J R E W - ` f s $ S.x.R J I T y w f h s p F.R I J T I c.S ; g c - Q b.E ~ Q T I R Z r r ; T m.J J I ",
"p u u t u 3 o ; ; y q q q % t & y y o ; o - t a p p t y p y ; 0 ; * y u u u y y y t t 4 ; + ; p y y q % # % p $ @ $ 3 A A A a a ",
"U.K.K.P.l.H.a Z.5.4.4.5.<.0 ].L.K.K.H.K.L.K.a.a.a.h.e R.I.K.I.L.A.C.n ~ I.H.Z.H.Z.Z.Z.J.8.Z.5.C.h.1.A.5.3 ).).].^.A.L.L.L.^.K.L.",
"t.s.p.i.4.v L +.@.;.@.O.M i 7Xk.s.s.s.s.s.s.s.u.e.u.V ].4.g.l.h.g.h.n 2.l.3.:.@.=.' ' +.:.:.o.+.:.O.4.i.z 9X<Xd.d.s.l.l.d.d.d.k.",
"L K K K M K B O.O.O.o.o.n z 4.*.L g.l.g.:.;.q.q.q.*.e z v C m B *.C 5 z o.=.*.*.*.3.>.4.4.4.4.a.K.3.a.4.v K.i.:.q.:.O.@.O.L B K ",
"L O.O.L L P P 4 r a B v 0 r 5.o.o.' c B +.o.o.' o.o.w m A.2.^.K.>.L z J.I.8.h.g.l.a.p.d.s.p.d.4.B ,.+.o.O B x v K B K L L O.O.P ",
"K O.O.+.:.:.:.3.3.:.:.4.K ; O.[ N v z r g g v z r x ; + 5.P.h.4.o.v e r z N c c r e r v z x B K P o.L L 3 ,.B P O.K K ' K o.B x ",
"O.=.+.@.o.o.O.P K v z e 3   a Y L ,.8.A.^.=.g.4.8.g.4.s r =.z w m Y ! 1.I.; L ,.*.,.H >.@.@.@.@.:.:.o.' 3 1.K.p.i.5.i.e.e.:.:.o.",
"d e e e * 3 3 3 w w 0 3 e O H.9X8X8X7X(.5XI.(.I.5X5X/.p., ; M.L.U.L./.8XL.g Z.p.4.p.e t z F x i x m P I a z o.:.' B B N C = e z ",
").G.).M.q `.M.].g.].Z.A.^.C z I.I.I.2XI.I.P.1X<XI.z.>.+.j L wX5XwXeX5X<Xl.g n 4.1.B q +XG.T.Y.Y.m.H.5.<.M.P r c v L L g * i oX).",
"J.H.4.J.x H.U.4.+.I.l.P.g.v r ^.K.2X(.3XI.I.z.2Xz.5X*.B e 5.(.K.9X4Xl.d.g.g.B o H L Y 5.<.5.M.M.3.@.U ,.P a ].0X8X7XeX Xv ~ _.J.",
"2.5.p.5.i h.P.h.;.H.h.H.q.C , B L.L.>.I.6XI.I./.I.5.c N d ^.U.].9Xl.s.h.^.l.j.H I.4.P 5.2.2.2.5.,.<.<.P H a 0XI.2X2X7X>.v m -.M.",
"2.<.3.=.e :.h.l.4.5.g.P.:.c r z L C n B -.O.5X4.C ' c z r ].L.L.7Xp.p.l.e.;.p.C 4.>.m 5.<.<.,.2.3.U P J q W 6XI.I.5Xj.q.n 2.A.Y ",
"K ,.3.K 4 5.h.P.q.K.8.L.` g 2.3 ' v B c ' C :.z ' B z e r 8XL.`.6Xp.u.^.;.+.4.C L *.0 A F F G Z p x t Z W V 4X3XU.7X4.;.n 1.M.W ",
"O.O.,.O.4 3.h.P.a.K.8.P.c -.N.@ v g v c c z V v B v i 6 n 4.}.rXk.p.e.K.;.*.>.`.P = Y P.3.p.5.3.O.4 4.Y.p.o.L.8XeXp.@.o.z L 4.>.",
":.P ,.F 3 d B z z x K n B o.r e w w c z z e r s v N w C 4.z c /.s.e.j.l.;.;.0.g.N H }.4XK.P.h.l.K.:.K I.p.3.>.h.*.o.o.+.e K 3.=.",
":.L z r M }.U.U.I.eX8XU.I.4X5X0Xz.f o 3 z B L z N z ; L =.B , [ I.e.[.p.;.q.q.*.j ).T.H.H.M.K.(.h.q.o.>.p.:.-.;.o.;.1.P w B 2.O.",
"e 5 3 = L.7Xp.i.I.s.s.,Xk.u.,X2X>.U.e }.7XY.H.U.9X8XJ.e B z z C -.U.qXz.;.0.q.C B ).K.J.K.H.P.h.i.:.:.v :.z z [ B r , w 5 e e m ",
"L h.h.@.O.P.p.d.d.d.<X<X<Xs.i.z.z 4.d 9XP.d.P.5.K.p.K., 8.].Z.:.wXU.>.h.;.;.4.] o.T.H.P.U.a.@.O.i.i.;.5 e B v 6.7.6.2.,.e L v ; ",
"J.l.P.5.d a.e.p.d.s.<Xl.d.s.p.:.c o.d }.4XU.d.K 3.q.p.r ].qX(.l @.g.u.q.h.e.o.b 2.U.H.a.d.O.O.O.:.o.B n &X[.L.h.l.K.U.T.1.K.v e ",
"5.d.d.4.e =.q.a.d.d.d.k.l.s.:.z +.@.z h.q.@.q.@.q.:.o.v K.0.0.V g a.p.q.j.=.[ N M.U.H.H.O.O.o.@.@.B B 1.U.a.h.a.a.d.H.B L Z.n r ",
"h.p.i.@.5 w 5 =.l.d.d.l.a.p.B B o.K e 8.4.:.C :.i.i.v z p.;.| p.s p.p.z.[ N [ g K.K.5.:.O.O.O.O.o.' N 5.a.l.H.P.U.Z.1.o.5.L e z ",
"P.d.d.v Z.Z.r N l.k.k.d.q.v c +.@.' j =.v d z v O.K c z a...q.;.g C n d d r c n H.8.3.@.@.O.o.+.O.' c Z.g.8.=.5.z ,.=.6.m o.C l ",
"3.:.v K l.g.L 5 C o.v c g B +.' C f - z z d v v z v d c o.@.+.' g 5 ; = @ 6 w :.P.=.o.=.O.O.+.O.O.' w B Y O.m L O.P ,.1.B 5.z g ",
"z z e y x z 0 3 , 5 w e 5 ; 5 w e d y w d d r d w w w c ' l c r d r V =.*.o.C c :.@.o.O.@.O.:.o.' z w O.6.,.-.=.7.5.=.P -.3.; e ",
"G.G.A.Y.h.Y p.L.<.`.A.h.L L }.K.3XI.4XI.e.:.4.o.>.:.l.3XU.i., L p.4.=.:.o.h.{.o.d v [ *.+.O.:.B e ; r 1.1.! m v z v o.=.4., W !.",
"z.l.l.K.>.L H.l.i.M.H.M.*.,.(.h.g.<Xq.f.e.q.;.q.q.u.u.s.s.2Xe 5.:.=.:.;.U.K.H.5.5 d e C o.z e 4 0 Y Y 4.C.z z L 4.a.>.8.i W '.I.",
"d.4.i.p.o.C 3.a.5.2.3.A.O.v =.o.4.u.h.l.<Xu.u.u.k.u.s.u.,Xo.f +.=.+.5.H.U.h.a.H.w * 5 , 5 3 5 3 @ 4.Y g r =.,.6.=.G.4.x x OXJ.a.",
"4.:.o.o.M G.z a.a.2.<.5.*.v :.+.,.[ a.d.;.z.>X,Xu.w.<X4X;.K d >.:.a.U.p.a.h.l.h.e z Z.G.L.U.U.).V.M P v a i z 4 3 0 ; X P ).4.p.",
":.@.@.5.P =.P 4.5.<.3.O.O.g i.o.o.' o.+.+.@.a.u.,X,X:.=.' ' e +.O.J.a.d.h.P.h.H.d 8.z.:.q.@.#.+.+.=.:.4.p.l.5.a.a.i.>.z Y 8.4.p.",
"q.i.3.3.e M a.5.3.<.h.L ' 5 C ' B ' o.o.' +.o.>.[ N ' +.o.z ; Z.G.h.a.d.l.a.5.5.e Z.+.o.o.o.o.+.@.+.o.| +.;.+.#.@.q.;.y Y 5.i.3.",
"i.i.4.4.w <.4.5.5.a.5.L K p g [ ' o.;.+.' [ o.B o.o.L o.' e i C.4.a.d.l.a.4.8.O.e 8.=.=.@.O.@.@.:.@.+.#.+.+.+.O.o.o.o.r P H.:.4.",
"5.i.P.o.z 5.d.a.:.m C -.N ^.5.e f N [ ' ` ` ' ' [ o.O.*.c M.4.C.p.s.l.h.h.,.=.C * N L B B ' ' C B B v C ' K v o.v K o.v r 5.a.p.",
"B v v 5 e *.-.o.M O.Y *.0 L N 4.n w 8.6.-.C [ [ C [ n z 7.-.z z L *.Y L C M r , . e B L B C C m z z z x g g r r d r g + X e z v ",
": c N N N V N c z ; 6 f n N C N C g f 6 - ; w w r r w m e ; , 5 g z c b g + * , r O 6 b *.;.[ $.*.d -.7.M p.g.| *.e.l f *.*.C , ",
"] (.4X(.5X/.(.(.(.- [.(.(./.(.}.].(./. Xb [ (.(.(.{.}.} -.4.].].].(.(.}.h.[ /.^.`.>.*.I.I.I.z./.8.$.-.*.7.(.(.>.j.I.V R./././.l ",
"] ].^.7X(.5X{.(.%X> }.{.].{.}.}.}.`.|.@Xg Y {.{.{.{.`.k ).-.}.{.{.{.}.^.] p. X|.@X;.] {./.(.^.|.] Z.A.V !./.[.-.j.^.-.`.`.R./.f ",
"` }.[.].}. X%XqX&X>  X%X&X&X@X|.@X@X@X].7 Y @X#X%X*X>.| |.*.%X%X%X%X}.| l {.|.%X:X) b  X^.{.|.R.V @X$Xb ~.@X*XV R.).7.'.|.^.`.8 ",
") {.}.7X(.{.{.(.`.< (. X8X/.(.I.j.I.e.e.< L &X-X%X&X/ A.A.Y }.}.(.I. X) b  X|./.%X^ k `.&X@X9.f ).[.@Xf Z.~. Xf `.-.Z.J.'.|.`.7 ",
") /.y.>X>X&.y.y.j.< k.f.y.r.k.>Xg.y.w.e.8 d )./.k.(.k f.q.=.j.r.r.&.j.| ^ k.k.f.(.^ h /./.k.N N e.e.k.c 9.u.g.f e.p.0.] ^.p.g.8 ",
"] z.u.r.&.y.&.y.g.< e.w.f.r.y.y.f.r.&.w.9 h }.w.y.k.` ..;.-.s.r.r.0.0.] k g.k.f./.k 7 p.e.] f ] w.w.w.[ R.w.g.N w.q.;.| j.w.f.8 ",
"{ /.y.&.r.y.r.r.e.7 w.w.w.&.>X&.u.r.%.w.9 7 z.u.u.u.{ ( 0.8.y.y.r.r.0.) k f.f.f./.9 s $.$.Z.e.) 0.w.w.*.h.y.k.C q.q.%.$.p.w.e.9 ",
"] k.r.r.r.%.%.r.w.> w.y.y.&.y.y.u.&.r.%.8 s s.f.u.y.| k 0.g.r.&.r.r.0.-.b d.,Xk.z.r M !.@X{.] ^ 0.e.w.:.e.r.g.b q.j.$.$.>.r.u.7 ",
"_ k.y.r.r.r.%.r.w.6 w.y.y.%.&.y.w.r.r.%.8 L R.g.k.y.w.7 | 0.&.%.r.r.0.$./ k.k.k.j.*.7 C |.w. .k 0.e.0.-.q.y.w.o.;.g.$.%.%.%.q.7 ",
"] f.r.y.r.%.r.r.w.> ;.r.r.%.r.r.r.0.y.r.7 ) j.r.u.r.f.6 } X.%.%.0.r.r...^ k.f.f.w.$.o.] *.w.} ^ %.u.u.;.0.0.0.| $.w.$. . .%.;.7 ",
") f.%.r.&.&.r.r.$.> $.r.r.X.&.r.&.%.&.%.< b s.r.r.X.u.k ^  .%.%.%.&.$.;.h f.f.z.f.b V @Xb >. .^ %.w.w.%.%.r.%.[ ;...} } ..%.0.7 ",
"^ f.%.%. .%.%. .%.: $.r.%.r.0.%.&.%.%.%.7 9 j.&.%.r.r.{ 9  ... ._ 6.^.j.7 e.0.c ! 6.b |.;.b %.h ..w.0.%.0.0.%.[ q...} ..} %.%.7 ",
"k u.%. . .%.%.} $.: ..0.%.%.&.%.%. . . .2 9 j.&.%.r.r. .> ] V $.k.$. ._ 7 [ g.3X/._ b j.;.k { 7  .&.%.%.r.%.%.[ $...) ..}  .$.< ",
"k 0.%.{ _ ..$._  .> } %.} }  . .}  . .} 2 8 g.&.%.%.%.%.7 } .. . . . ._ 7 w.f.w.w.k 9 g.$.) ^ 8 } %.%. .0.%.%.[ ..} ` $.`  .} < "
};
