/* XPM */
static char *d114ccfbe0a444c0adbbe3fac14f969b[] = {
/* columns rows colors chars-per-pixel */
"64 64 175 2 ",
"   c #1E1415",
".  c #24160F",
"X  c #2B140D",
"o  c #2B1A0D",
"O  c #321C0E",
"+  c #241513",
"@  c #2A1615",
"#  c #251914",
"$  c #2C1A14",
"%  c #241518",
"&  c #2B1519",
"*  c #241919",
"=  c #2D1C1A",
"-  c #311712",
";  c #331C16",
":  c #391D14",
">  c #331E1A",
",  c #391D1B",
"<  c #2F2317",
"1  c #2E201C",
"2  c #352115",
"3  c #3C2216",
"4  c #35221C",
"5  c #3B241D",
"6  c #3D291D",
"7  c #3A1D21",
"8  c #352321",
"9  c #3C2521",
"0  c #332824",
"q  c #3D2922",
"w  c #3C2A28",
"e  c #432315",
"r  c #4A2515",
"t  c #4E2B16",
"y  c #43261C",
"u  c #49271A",
"i  c #442A1D",
"p  c #4B2B1C",
"a  c #5B2D16",
"s  c #50261A",
"d  c #522D1C",
"f  c #5B2F1A",
"g  c #43341D",
"h  c #4C311D",
"j  c #54321D",
"k  c #5B321D",
"l  c #56381C",
"z  c #5B381F",
"x  c #63351D",
"c  c #6A361D",
"v  c #64381E",
"b  c #6B3C1E",
"n  c #733E1E",
"m  c #7D3E1B",
"M  c #412623",
"N  c #4C2722",
"B  c #442B22",
"V  c #4B2D23",
"C  c #44262A",
"Z  c #452D29",
"A  c #4A2E29",
"S  c #532E23",
"D  c #5A2E22",
"F  c #522F29",
"G  c #473122",
"H  c #4D3124",
"J  c #46322B",
"K  c #4B312A",
"L  c #543324",
"P  c #5B3523",
"I  c #553926",
"U  c #5C3925",
"Y  c #54352A",
"T  c #5B3529",
"R  c #56392A",
"E  c #5C3A2A",
"W  c #533831",
"Q  c #5D3D31",
"!  c #613623",
"~  c #6A3623",
"^  c #643B24",
"/  c #6B3C24",
"(  c #61362A",
")  c #633C2A",
"_  c #6B3D2A",
"`  c #723724",
"'  c #743D24",
"]  c #7B3D24",
"[  c #723E2A",
"{  c #7A3E2A",
"}  c #603C31",
"|  c #6A3E31",
" . c #6F411F",
".. c #73411E",
"X. c #79421E",
"o. c #5C402A",
"O. c #654125",
"+. c #6C4125",
"@. c #6E4B25",
"#. c #65412C",
"$. c #6C432B",
"%. c #6D492D",
"&. c #744225",
"*. c #7B4325",
"=. c #714926",
"-. c #7D4A25",
";. c #73432B",
":. c #7B452A",
">. c #74492C",
",. c #7C4A2B",
"<. c #644231",
"1. c #6B4432",
"2. c #6F4936",
"3. c #734432",
"4. c #7B4331",
"5. c #744A31",
"6. c #7C4B32",
"7. c #734E3E",
"8. c #7E5032",
"9. c #795138",
"0. c #8A3E1C",
"q. c #85451F",
"w. c #844524",
"e. c #8A4624",
"r. c #834A25",
"t. c #8B4B26",
"y. c #83462A",
"u. c #8B462A",
"i. c #834B2B",
"p. c #8C4C2B",
"a. c #924625",
"s. c #934B25",
"d. c #9A4D27",
"f. c #934C2B",
"g. c #9A4D2B",
"h. c #8E5026",
"j. c #85512C",
"k. c #8C522D",
"l. c #915126",
"z. c #9A5226",
"x. c #94522C",
"c. c #9B532C",
"v. c #95582C",
"b. c #9C5A2E",
"n. c #824532",
"m. c #834D31",
"M. c #8A4D31",
"N. c #924730",
"B. c #934F31",
"V. c #855233",
"C. c #8B5333",
"Z. c #8E5A31",
"A. c #84543A",
"S. c #8C5938",
"D. c #935432",
"F. c #9B5532",
"G. c #955A34",
"H. c #9B5A33",
"J. c #905739",
"K. c #9A5D39",
"L. c #A14E25",
"P. c #A14E2C",
"I. c #A45024",
"U. c #A3532B",
"Y. c #AB572B",
"T. c #A2592D",
"R. c #AC582C",
"E. c #A35730",
"W. c #A25B32",
"Q. c #9E6137",
"!. c #A4612D",
"~. c #A66432",
"^. c #AE6135",
"/. c #A76238",
"(. c #A56742",
/* pixels */
") _ I &.$.j.5.V.h.V 1.[ U s   V T e.) S T ^ &.&.:.9 Y P 6 *.C.j :.x -.! ! G 5 G z O.L i.O.p L ;.:.U 5 @ Y &.:.V s.' o.U +.S -.^ ",
"_ %.Y ;.;.i.>.Z.i.h ) / ^ L   p P s.1.j L z +.;.:.9 Y ! M :.M.L :.[ i.;./ H 2 H o.$.L i.O.e R O.i.z C X F w.i.F s.' ) ^ / j :.) ",
") 5.S &.;.i.>.Z.j.H U +.^ T * e ) h.$.S P P O.*.;.M R ! 5 i.p.T u.~ t.-./ H > V O.#.L -.:.y E / -.z C $ L *.i.S s.{ #.n.b L w.^ ",
"5.9.Y [ 5.r.-.C.r.d ) &.^ F * e ) l.$.S ! L $.i.[ ; T ^ 5 i.Z.L u.[ y.y.^ G < V #.#.U *.:.s E _ y.z 9 $ E -.M.L a.{ ) u.O.t t.n ",
"%.8.) _ ;.e.6.h.i.V 1.+.#.F % p / x.;.S U Y n j.&., L ) h 6.K.H d.q.i.p.^ V 2 B ) +.T ,.;.M ^ | m.j 7 = L ;.N.U s.' ) r._ p a./ ",
"5.,.) ( *.e.5.v.i.N $.[ $.L % d +.s.%.d U L *.y.{ 3 U U V >.H.F s.w.M.y.^ V 2 B ) +.P :.' 5 O.%.w.j 9 $ I &.N.v s.[ ) q.) j s.b ",
";.-.) } :.t.5.v.i.h $.+./ ( . P [ d.%.h U L -.i.&.3 S U F &.K.L d.e.m.e.^ H 4 q _ %.U ;.&.5 O.O.i.l 9 X U +.f.v a.] } r.) h d./ ",
"%.r.) F u.t.5.l.i.p $./ *.3.. P :.d.%.5 ) N :.i.;.5 U ) V 5.H.L c.u.;.N.+.h > q +.5.L [ :.y $.[ m.j M - Y O.N.O.a.*.) r.^ t g.v ",
"#.i./ B h.w.-.C.r.H 1./ ,.1.X ! w.s.;.M ) d ,.:.] 8 F _ I -.S.j I.m.' u.P F > 8 ;.=.R [ -.: ;.$.,.i 5 ; L ) s.' s.{ ) e.U h d.' ",
"$.j.+.B l.t.-.v.t.F #.+.,.#.X P m.z.5.9 ) p y.y.y.4 H ;.L ,.S.I R.M.x M.U H 2 q +.*.Y :.y.: 5.$.,.t 0 ; F ^ f.&.f.{ ) y.U t s./ ",
") j.;.V p.y.-.v.r.F ^ +.,.) - P y.z.%.M ) S :.y.y.9 H +.U ,.C.F R.p.e B.P G 5 8 / >.Y 5.y., _ >.i.P 5 > S ^ s.[ s.{ ) t.U t d./ ",
") ,.8.N j.y.-.l.r.H U ;.:._ X D y.c./ B ( N :.:.*.> S ) ^ i.m.R R.e.M u.) H 3 6 / :.L ,.h.7 z :.r.U 4 4 j U g.[ f.{ | u.^ j a.;.",
") j.,.M i.e.,.g.i.h U +.8.^ > x -.g.[ i ( s ;.&.;.< Y ~ ^ i.A.^ U.u.7 ' O.L 8 9 [ @.T i.t.e R y.p.K i = j $.d.&.f.[ +.r.) j e.*.",
"U ,.:.B m.e.*.D.r.H O.+.,.U X ! -.c._ G ) d :.:.( > Y ^ ^ p.V.;.T.' q :./ R 5 q _ =.T M.i.e L M.l.Y y & h ^ f.&.u.{ ;.y.^ S t.X.",
"U r.:.A :.p.,.D.*.S 1./ ,.P - D :.g.;.V ) d -.y.F 8 E ;.) p.V.[ ^.e q y./ H q 5 [ %.P i.t.u h k.v.S i = V ^ d.&.e.;.;.:./ P e.*.",
"^ -.8.B  .f.&.v.-.L | { m.( ; P y.s.6.d ) ^ w.y.Y $ $.6.^ p.A.l ^.6 6 n.&.L 5 < ~ =.U i.p.p d l.c.T y = G ! P.] y.*.*.,.v j w.&.",
"O.i.r.V / l.:.b.*.h ^ ;.i.T - T *.a.,.F E [ &.;.E $ 1.i.U h.V.V (.e y 6.' I y = ) :.T i.p.N A c.F.t M ; B U g.*.q.:.-.[ x P e.-.",
"O.i.i.N +.D.' W.*.d ) +.i.} > ! &.f.:.y P &.+.$.L = _ i.^ h.8.y v i i i.[ I M = U m.D y.p.p V T.B.d M < h I F.*.w.` m.;./ S e.&.",
"O.i.r.C _ v./ W.&.d ^ $.n Q : ! %.f.m.u ( %./ | F > ^ D.| t.,.Y L B d ,.*.I M ; L i.P B.z.f H E.M.j y ; V P g.*.e.` M.&.v P t.' ",
"O.:.j.V ) G.v b.*.V ^ &.*.Q - ! O.f.8.p ) ;./ U B , ^ Z.) h.V.) k H d j.[ R M < F 6.! k.z.z F T.m.H 5 2 B P c.X.e.~ i.&./ L t.&.",
"O.i.m.N [ G.v K.*.L ^ &.^ i ; P ^ j.M.t _ 3.&.U p 1 } x.) f.m.^ j F y p.;.U B = j ,.P k.f.v Y c.m.S 2 5 V Y d.*.q.] i.{ b U t.&.",
"^ i.&.T ;.H./ G.&.S z 5.y 4 , ~ O.p.M.p ~ 3.&.L F 1 T b.^ k.,.^ j Y y M./ E B = j 8.k D.f.x T F.C.d > 2 L L L.*.t.] i.;.v P r.' ",
"^ i.&.E ;.H./ D.n H L 1.> 1 9 ~ %.p.y.V / ;.-.^ i 1 ( b.P x.m.~ t V 6 m.O.R M 5 S 8.d D.d.v E F.D.j > 2 T V g.*.a.] i./ v P t.*.",
"^ m.*.) { F./ F. .H L E M = y / >.e.M.B [ ;.*.) V = ( W.) z.V.~ t F B ,.o.R M 5 d m.f k.s.x } x.K.d 1 O P H c.t.a.] i./ j f s.&.",
"^ i.f.U *.G._ D.' h L I 3 1 y _ :.y.k.i [ >.i.$.H $ P W.' G.f.! p M y &.^ W q 5 P ,.d f.u.L $.:.W.d < 2 L Z s.e.a.:.p.+.P ! a.] ",
") p.f.U ` F.$.D.[ h d %.U - 5 / 8.e.k.B ;.;.-.) S < k b.' C.x.! i 5 M E U Q q 5 E 6.d k.e.P ;.,.v.P = > p Y g.e.e.] l./ D ! z.*.",
") p.f.^ ` Z.$.x.&.t j :.m.5 5 / >.y.k.p :.{ -.$.L > T c.*.i.x.x q 8 B T E Y 5 q ) ,.p p.e.P 3.+.C.T > $ t K h.e.t.] k./ S ! z.*.",
"O.k.f.) ] Z._ D.w.h F ;.i.5 , ~ =.u.k.N ;.;.-.O.Y : E U.&.y.D.! 0 2 i #.#.H 6 w E 5.d m.t.T ;.8.C.j 2 + h W s.e.a.` k.&.f P d.*.",
"v D.k.+._ D./ k.q.d S >.s.9 , / +.m.j.d 3.+.r.#.E > ) c.;.m.G.s M 4 j 8.<.h 5 6 U =.L ;.u.c %.#.E P > @ 6 I t.e.e.' F./ S ( L.*.",
"/ Z.p.;._ D.x D.t.t H 3.p.9 3 ~ $.y.j.i [ / r.#.E , ^ F.[ i.Z.P C h &.5.E H 9 6 T ;.Y +.i.~ ^ %.V 9.O & i U g.f.z.[ c.~ S ) d.] ",
"^ C.t.m.( J.x F.y.s H +.p.9 3 x +.m.&.N ~ &.r.1.U ; ) f.~ :.D.k V ;.f.8.E H 8 i L ,.V ) m.v / A.y %.2 $ i S f.a.d.` F.) S ! d.*.",
"^ C.r.i.T G.x J.y.t H $.,.6 e [ +.M.*.V 1.;.-.O.^ , ) D.c m.G.k h ,.q.>.E i 8 g V m.L ) *./ | f Y d C o B L f.e.z.` x.) t ) d.*.",
") V.r.k.F H.P F.w.B F +.i., 2 ] ^ M.*.i :.&.-.E ) > ^ v.^ i.z.V 5 y.y.,.Y S 6 B H r.L / :.+.E B H <.; * B L d.y.L.n B./ B _ u.:.",
"^ m.t.D.P H.! H.w.i A $.t.> 5 ] / p.*.B m.&.,.I ^ ; ^ F.P A.b.h y p.y.+.T L w F H t.Y / :./ y > G L 3 . B j g.e.g.+.y._ e [ a.y.",
"^ V.w.C.Y E.[ D.w.i J ;.i.> e w.$.y.*.V 6.&.-.L } ; ^ F.a 6.F.L p D.y.P Y L q H G k.Y ~ *.&.7.4 I o.i $ B P a.w.P.+.w.$.y ;.d.*.",
"O.C.q.C.T E.&.F.*.i J &.r.; 3 u.+.*.&.H 4.&.-.Y U ; ^ F.P 6.h.U T F.n.) Y I q B Y t.Y / *.[ ! B ;.j 2 % N T g.y.d.+.y.~ i +.s.*.",
"^ i.p.D.T G.` D.*.s S $.i.; : h._ ;.*.S ,.n :.^ ^ 1 / b.! 2.a.E $.h.] _ ^ F 4 B L i.L [ $.b Q j I L < X M v g.y.u.] =.' p ;.f.y.",
"^ ,.k.x.! H.] f.[ t H 1.,.4 ; f.;.;.&.d m.&.,.^ P $ ~ b.! 1.f.h 5.f.{ ~ O.V 5 B T r.z >.^ +.T ) U d o @ 3 ! f.y.t.e.,.[ y &.s.y.",
"^ -.l.c.;.F.{ l.;.t H +.,.$ > f.,.*.&.P m.[ ,.! I $ ~ H.z #.y.Y -.p.&.D ) Y 1 w T r.~ ;.! / H $.P ! o + i ! h.e.e.w.,./ y [ g.*.",
") i.f.F.;.H.n.h.[ S H $.:.$ > q.t.[ &.S 6.&.$.P V ; c C.^ <.u.B G.i._ s ) Y < B I e.$.:.! %.F &.P 3.O * p S m e.w.e.i.~ p [ l.w.",
"b y.x.F./ D.y.p.' S d %.:.@ 3 ;.x.+.n S m.n %.D h * ' Z.` | 4.V v.-.) d E p 9 6 P -.[ &.x &.h *.L t.4 $ i P [ t.] a.m.^ h T d.-.",
"^ i.b.c.+.D.i.p.[ P H 5.[ + 3 [ x.[ *.Y 6.*.^ T N * / k.~ #.&.V K.*.( ! ^ p w i T ,._ *.v >.H :.S M.Z # y S ` e.] a.i.^ L L a.*.",
"v r.v.b.[ l.-.p.~ U H &./ @ 5 / c.$.*.Y 6.m U P i * x D./ E +.I b.*.D x ^ T 0 y Y :./ >.a 8.j ,.j i.B $ p E a y.` h.M.^ T S f.*.",
"! ..v.b.[ p.m.p.[ E V O.O.+ M ^ g.+.*.T 6.X.P T V # c D.{ R 3.| c.:.F / I T < i Y >.^ :.z 6.I &.L j.q $ N <.f w.~ z.k._ z N h.&.",
"v / G.H.[ C.w.p.b U p :.S - 6 S l.[ :.^ 3.O.P S N = x F.&.S +.b ,.;.j / P B = M E ;.^ ,.U w.I :.p g.S * i P d w./ d.k.&.! B i./ ",
"^ / v.b.&.V.e.k./ U h 5.y = G s x./ >.+.| ^ U d Y $ f F.4.Y [ ^ :.:.P &.P B 1 A %.5.^ *.f *.E ;.N u.F $ i P j y.+.d.f.&.^ p m./ ",
"U x v.T.m.i.:.k./ I d 1.3 $ B i h.[ +./ O.v ) p S = f F.4.E ) $.;.&.$.&.P M 4 J ;.;.#.n I *.#.:.L D.L . V j S u.^ c.C.&./ N i.^ ",
"U ! b.T.C.:.-.f.) L L U 3 = h M h.4.o.:.) x ^ h F $ x f.:.T ^ f 8.n _ *.T A $ J i.&.} *.z *.#.:.Y e.E . V d T y.P g.p.../ s m.z ",
"! j b.W.x.>.r.m.` L j Y i O B 9 e.y.U *.E ! ^ N L < k d.,.) ) j :./ ;.*.T V > G M.+.! [ ] ) _ :.! 1.) + V I ) w.k B.f.&.&.i l.R ",
"! P H.W.H.&.-.i./ L P Y i ; B N *.M.j &.P v U N F $ v h./ <.! ) i.$.+.i.T B = H :.%.( ;.:.! +.M.k 1.( + V ^ U *.! f.l.+.=.V t.T ",
"! k b.W.b.&.i.y.) F P L 5 2 G F *.i.S _ E ^ P y d $ P w.[ O.3.p m./ ;.,.T B > H :.5.) +.:.! -.F.L 1.k > V U ) n ^ f.f.+.*.h a.U ",
"! P /.W.c.+.i.*.) j ^ S 5 2 y U &.y.U [ P ) P y p $ P w.O.^ | = i.f 6.-.Y G , p [ O._ O.*._ M.g.L | P 4 N ^ O.' ^ u.f.&.*.S t.E ",
"^ L !.~.G.*.h.*.! L *.b 3 4 p :.) *.z &.S #.j M G % ! y.+./ Y y *.P :.:.Y B 8 S ) ;.E $.O./ y.U.R ^ ^ 3 M ) $.[ ^ p.f.;.X.S m.v ",
"P T ~.W.b.:.M.:.U L y.4.2 5 H V.^ w.O.;.P U S 6 i $ ^ :.3./ F T *.P ;.,.Y B 4 S #.&.E _ ^ / k.Y.Y U ^ 5 i ) ) [ ^ u.f.>.*.z +./ ",
"^ L ~.!.H.:.p.[ E I :.:.6 ; j Z.P *.$.;.j T H i q $ ) :.;./ N $.' ! &.i.V F 2 ^ } +.P $.^ &.p.P.R P v q 5 ) ) :.) t.p.:.>.&.) / ",
"! L ~.T.G.*.C.[ U I :.&.y = L v.P ,.#.:.U L V h 8 = / &.&._ V O.y.) ,.i.Q y 5 P ^ ;.I ~ / ;.p.I.o.I / 6 y ) ^ ~ / w.t.m.&.:.d &.",
"U l /.W.b.&.D./ U E *.-.5 2 k b.x 6.) ;./ j F i > $ ( n [ 2.N ;.:.^ r.w.E y 1 U P %.) ^ O.' -.c.Y P ^ C 6 v Q k b e.p.i./ -.H U ",
") o.W.v.v.5.C.' U U :.:.5 2 P W.b [ +.;./ j V H > . D *.[ #.B ;.] ! :.,.P i 5 T j +./ ^ / [ i.z.R d / B 5 ^ Y v +.t.t.j./ ,.F #.",
") U T.g.v.5.M.] I U *.:.5 > j W.[ ' $.&.O.S V Y 7 + S :.[ %.i _ &._ w.w.U i = V I %.%.P *.[ i.p.( H [ i 1 / Y x [ f.w.>./ -.S U ",
"} O.T.x.v.>.m.-.I E -.&.5 > d F.>.[ %.&./ P L H 9 * S y.:.+.M 3.U ;.e.h.E 5 1 B E $.+.U -.] *.M._ g ;.V 9 ^ Y ! ` e.t.8./ ,.F U ",
") [ W.x.Z.5.p.&.I U :./ < > d F.r.^ %.+.&.S H F 5 X S 3.u.) y } R / s.m.$.5 = G L &.1.U u.y.*.#.) h [ t 5 ! H ! [ y.t.,./ i.j U ",
") &.W.x.Z.;.m.*.L ) ,._ 2 > k W.p.k ;.+.[ T B G 6 ; S / *.$.2 F V ~ s.i.U 9 $ i E ;.#.I f.w.;.$.^ V +.d 5 ^ H f / w.l.j./ i.z Y ",
") x W.a.C.$.,.,.H O.-.[ 2 : ! E.h.U 5.+.+.d B F h $ N &.*.} 5 W ; ^ a.w.L 9 1 B E +.#.S c.*.%.$.U M ;.S 4 ! A r  .*.h.i.c -.U T ",
"$.v W.f.C.$.,.-.K $.r._ 4 5 ! E.j.U &.;.^ H i F j ; M ;.:.} 5 A 5 P t.t.F 0 1 H E v 1.E g.' $.#.E 5 ;.d 5 ^ A p &.{ j.u.^ *.O.S "
};
